<svg width="18" height="20" viewBox="0 0 18 20" fill="none" xmlns="http://www.w3.org/2000/svg">
<path d="M9 9C11.4853 9 13.5 6.98528 13.5 4.5C13.5 2.01472 11.4853 0 9 0C6.51472 0 4.5 2.01472 4.5 4.5C4.5 6.98528 6.51472 9 9 9Z" fill="white"/>
<path d="M18 19.125V14.625C18 13.95 17.6625 13.275 17.1 12.825C15.8625 11.8125 14.2875 11.1375 12.7125 10.6875C11.5875 10.35 10.35 10.125 9 10.125C7.7625 10.125 6.525 10.35 5.2875 10.6875C3.7125 11.1375 2.1375 11.925 0.9 12.825C0.3375 13.275 0 13.95 0 14.625V19.125H18Z" fill="white"/>
</svg>
