<svg width="22" height="20" viewBox="0 0 22 20" fill="none" xmlns="http://www.w3.org/2000/svg">
<path d="M1.3125 11.5625C1.48489 11.5624 1.6556 11.5963 1.81489 11.6622C1.97417 11.7281 2.1189 11.8248 2.2408 11.9467C2.36269 12.0686 2.45937 12.2133 2.52529 12.3726C2.59122 12.5319 2.6251 12.7026 2.625 12.875V16.8125L18.375 16.8125V12.875C18.375 12.5269 18.5133 12.1931 18.7594 11.9469C19.0056 11.7008 19.3394 11.5625 19.6875 11.5625C20.0356 11.5625 20.3694 11.7008 20.6156 11.9469C20.8617 12.1931 21 12.5269 21 12.875V18.125C21.0001 18.2974 20.9662 18.4681 20.9003 18.6274C20.8344 18.7867 20.7377 18.9314 20.6158 19.0533C20.4939 19.1752 20.3492 19.2719 20.1899 19.3378C20.0306 19.4037 19.8599 19.4376 19.6875 19.4375L1.3125 19.4375C1.14011 19.4376 0.969397 19.4037 0.810112 19.3378C0.650827 19.2719 0.506102 19.1752 0.384205 19.0533C0.262308 18.9314 0.165634 18.7867 0.0997086 18.6274C0.033783 18.4681 -9.72748e-05 18.2974 0 18.125V12.875C-9.72748e-05 12.7026 0.033783 12.5319 0.0997086 12.3726C0.165634 12.2133 0.262308 12.0686 0.384205 11.9467C0.506102 11.8248 0.650827 11.7281 0.810112 11.6622C0.969397 11.5963 1.14011 11.5624 1.3125 11.5625Z" fill="white"/>
<path d="M11.1753 13.678C11.0534 13.7999 10.9088 13.8966 10.7495 13.9626C10.5903 14.0285 10.4196 14.0625 10.2473 14.0625C10.0749 14.0625 9.90426 14.0285 9.74504 13.9626C9.58581 13.8966 9.44114 13.7999 9.3193 13.678L5.3818 9.74048C5.13681 9.49413 4.99951 9.16068 5 8.81326C5.00048 8.46583 5.13871 8.13277 5.38438 7.8871C5.63005 7.64143 5.96311 7.5032 6.31054 7.50271C6.65797 7.50223 6.99141 7.63953 7.23776 7.88452L8.93478 9.58154V2.25C8.93478 1.9019 9.07306 1.56806 9.3192 1.32192C9.56534 1.07578 9.89918 0.9375 10.2473 0.9375C10.5954 0.9375 10.9292 1.07578 11.1754 1.32192C11.4215 1.56806 11.5598 1.9019 11.5598 2.25V9.58154L13.2568 7.88452C13.5032 7.63953 13.8366 7.50223 14.184 7.50271C14.5315 7.5032 14.8645 7.64143 15.1102 7.8871C15.3559 8.13277 15.4941 8.46583 15.4946 8.81326C15.495 9.16068 15.3577 9.49413 15.1128 9.74048L11.1753 13.678Z" fill="white"/>
</svg>
