<svg width="51" height="51" viewBox="0 0 51 51" fill="none" xmlns="http://www.w3.org/2000/svg">
<path d="M14.6445 0.218262H35.8C43.8673 0.218262 50.4074 6.71014 50.4074 14.7183V35.7182C50.4074 43.7265 43.8673 50.2182 35.8 50.2182H14.6445C6.57701 50.2182 0.0370483 43.7265 0.0370483 35.7182V14.7183C0.0370483 6.71014 6.57701 0.218262 14.6445 0.218262ZM14.1408 5.21821C9.13336 5.21821 5.07409 9.24766 5.07409 14.2182V36.2182C5.07409 41.1887 9.13336 45.2182 14.1408 45.2182H36.3037C41.311 45.2182 45.3704 41.1887 45.3704 36.2182V14.2182C45.3704 9.24766 41.311 5.21821 36.3037 5.21821H14.1408ZM38.4445 8.96821C40.1832 8.96821 41.5926 10.3673 41.5926 12.0932C41.5926 13.8191 40.1832 15.2182 38.4445 15.2182C36.7057 15.2182 35.2963 13.8191 35.2963 12.0932C35.2963 10.3673 36.7057 8.96821 38.4445 8.96821ZM25.2222 12.7182C32.1769 12.7182 37.8148 18.3147 37.8148 25.2182C37.8148 32.1217 32.1769 37.7182 25.2222 37.7182C18.2675 37.7182 12.6296 32.1217 12.6296 25.2182C12.6296 18.3147 18.2675 12.7182 25.2222 12.7182ZM25.2222 17.7182C21.0493 17.7182 17.6667 21.0762 17.6667 25.2182C17.6667 29.3605 21.0493 32.7182 25.2222 32.7182C29.3952 32.7182 32.7778 29.3605 32.7778 25.2182C32.7778 21.0762 29.3952 17.7182 25.2222 17.7182Z" fill="white"/>
</svg>
